<svg xmlns="http://www.w3.org/2000/svg" width="32" height="32" viewBox="0 0 32 32" fill="none">
  <path d="M12.8519 21.8333L17.2963 23.5C17.2963 23.5 28.4074 21 29.8889 21C31.3704 21 31.3704 22.6667 29.8889 24.3333C28.4074 26 23.2222 31 18.7778 31C14.3333 31 11.3704 28.5 8.40741 28.5H1" stroke="#F8F8F8" stroke-width="2" stroke-linecap="round" stroke-linejoin="round"/>
  <path d="M1 18.5C2.48148 16.8333 5.44444 14.3333 8.40741 14.3333C11.3704 14.3333 18.4074 17.6667 19.5185 19.3333C20.6296 21 17.2963 23.5 17.2963 23.5M9.88889 9.33333V2.66667C9.88889 2.22464 10.045 1.80072 10.3228 1.48816C10.6006 1.1756 10.9775 1 11.3704 1H29.1481C29.5411 1 29.9179 1.1756 30.1957 1.48816C30.4735 1.80072 30.6296 2.22464 30.6296 2.66667V16" stroke="#F8F8F8" stroke-width="2" stroke-linecap="round" stroke-linejoin="round"/>
  <path d="M16.5556 1H23.963V8.5H16.5556V1Z" stroke="#F8F8F8" stroke-width="2" stroke-linecap="round" stroke-linejoin="round"/>
</svg>