<svg width="30" height="30" viewBox="0 0 30 30" fill="none" xmlns="http://www.w3.org/2000/svg">
<g id="solar:delivery-bold">
<g id="Group">
<path id="Vector" d="M11.955 10.9126L12.5988 13.2414C13.205 15.4351 13.5075 16.5326 14.3988 17.0314C15.29 17.5314 16.4213 17.2364 18.6838 16.6489L21.0838 16.0239C23.3463 15.4364 24.4775 15.1426 24.9925 14.2789C25.5075 13.4139 25.205 12.3164 24.5975 10.1226L23.955 7.79512C23.3488 5.60012 23.045 4.50262 22.155 4.00387C21.2625 3.50387 20.1313 3.79887 17.8688 4.38762L15.4688 5.01012C13.2063 5.59762 12.075 5.89262 11.5613 6.75762C11.0463 7.62137 11.3488 8.71887 11.955 10.9126Z" fill="#F8F8F8"/>
<path id="Vector_2" d="M2.84626 6.55897C2.87919 6.44025 2.9352 6.32918 3.01109 6.23213C3.08697 6.13507 3.18124 6.05392 3.28851 5.99332C3.39578 5.93272 3.51394 5.89386 3.63624 5.87895C3.75854 5.86405 3.88257 5.8734 4.00126 5.90647L6.13001 6.49647C6.69418 6.64969 7.20903 6.94647 7.62438 7.35787C8.03973 7.76928 8.34141 8.28128 8.50001 8.84397L11.1888 18.5765L11.3863 19.259C12.1775 19.5552 12.8575 20.109 13.2888 20.844L13.6763 20.724L24.7638 17.8427C24.8829 17.8117 25.007 17.8044 25.129 17.8214C25.251 17.8383 25.3684 17.8791 25.4747 17.9415C25.5809 18.0038 25.6737 18.0864 25.748 18.1847C25.8223 18.2829 25.8765 18.3948 25.9075 18.514C25.9385 18.6331 25.9458 18.7573 25.9288 18.8792C25.9119 19.0012 25.8711 19.1187 25.8088 19.2249C25.7464 19.3311 25.6638 19.424 25.5656 19.4982C25.4673 19.5725 25.3554 19.6267 25.2363 19.6577L14.1888 22.5277L13.7788 22.6552C13.77 24.2427 12.6738 25.694 11.0163 26.1252C9.02751 26.6427 6.98376 25.4977 6.45126 23.5702C5.91876 21.6415 7.09876 19.659 9.08626 19.1427C9.18419 19.1175 9.283 19.0958 9.38251 19.0777L6.69251 9.34272C6.62009 9.09261 6.48418 8.8655 6.298 8.68347C6.11181 8.50145 5.88169 8.37071 5.63001 8.30397L3.50001 7.71272C3.38131 7.67991 3.27024 7.62404 3.17314 7.54829C3.07605 7.47255 2.99482 7.37842 2.93411 7.27128C2.8734 7.16413 2.8344 7.04608 2.81932 6.92386C2.80425 6.80164 2.8134 6.67765 2.84626 6.55897Z" fill="#F8F8F8"/>
</g>
</g>
</svg>
