<svg xmlns="http://www.w3.org/2000/svg" width="30" height="30" viewBox="0 0 30 30" fill="none">
  <g clip-path="url(#clip0_150_2)">
    <path d="M0 13.1252C0 14.1623 0.837891 15.0002 1.875 15.0002C2.91211 15.0002 3.75 14.1623 3.75 13.1252C3.75 10.0197 6.26953 7.50016 9.375 7.50016H18.75V9.37516C18.75 10.131 19.207 10.8166 19.9102 11.1095C20.6133 11.4025 21.416 11.2384 21.9551 10.7052L25.7051 6.95524C26.4375 6.22282 26.4375 5.03337 25.7051 4.30094L21.9551 0.550944C21.416 0.0118815 20.6133 -0.146322 19.9102 0.146647C19.207 0.439616 18.75 1.1193 18.75 1.87516V3.75016H9.375C4.19531 3.75016 0 7.94548 0 13.1252ZM30 16.8752C30 15.8381 29.1621 15.0002 28.125 15.0002C27.0879 15.0002 26.25 15.8381 26.25 16.8752C26.25 19.9806 23.7305 22.5002 20.625 22.5002H11.25V20.6252C11.25 19.8693 10.793 19.1838 10.0898 18.8908C9.38672 18.5978 8.58398 18.7619 8.04492 19.2951L4.29492 23.0451C3.5625 23.7775 3.5625 24.967 4.29492 25.6994L8.04492 29.4494C8.58398 29.9884 9.38672 30.1466 10.0898 29.8537C10.793 29.5607 11.25 28.881 11.25 28.1193V26.2502H20.625C25.8047 26.2502 30 22.0549 30 16.8752Z" fill="#F8F8F8"/>
  </g>
  <defs>
    <clipPath id="clip0_150_2">
      <rect width="30" height="30" fill="white"/>
    </clipPath>
  </defs>
</svg>